<svg width="580" height="517" viewBox="0 0 580 517" fill="none" xmlns="http://www.w3.org/2000/svg">
<path d="M145.777 405.851L279.511 416.013C279.511 416.013 377.751 393.784 476.626 405.851C575.5 417.919 452.541 433.162 452.541 433.162L528.598 440.784L512.119 449.874C507.842 452.233 554.407 454.572 573.599 471.27C611.804 504.511 467.453 487.981 444.935 486.514L390.427 517L22.1834 459.838L145.777 405.851Z" fill="#C4C4C4"/>
<path d="M427.649 442.025L414.462 426.921L423.881 425.033L427.649 442.025Z" fill="#FAFAFA"/>
<path d="M404.1 408.984C344.757 402.376 344.757 399.544 349.467 420.313C341.568 417.485 338.809 408.838 338.184 401.896C337.882 398.543 340.915 396.092 344.258 396.486L402.216 403.32L409.752 372.167L402.216 365.558L421.056 308.916L441.779 302.308V308.916L425.765 369.335L416.346 372.167L411.636 403.32C432.987 397.656 468.691 400.692 469.095 407.096C469.5 413.5 451.198 432.585 454.966 420.313C457.98 410.495 459.186 409.135 459.548 408.984H404.1Z" fill="#364B4C"/>
<path d="M320.266 397.656L323.092 408.984L303.311 413.704L312.73 407.096L314.614 402.376L320.266 397.656Z" fill="#FAFAFA"/>
<path d="M367.364 298.532C422.939 315.524 497.354 300.42 489.818 294.755C482.283 289.091 414.462 268.322 367.364 298.532Z" fill="#F39A4A" stroke="black" stroke-width="3"/>
<path d="M437.943 289.876C385.126 288.772 438.232 119.164 510.542 119.164C557.64 119.164 533.149 151.261 514.211 218.288C495.273 285.315 462.691 290.393 437.943 289.876Z" fill="#F39A4A" stroke="black" stroke-width="3"/>
<path d="M425.765 438.249C425.012 439.005 417.916 431.012 414.462 426.921C414.462 448.634 438.011 481.675 442.721 476.955C446.488 473.179 431.731 442.025 423.881 426.921C424.823 430.382 426.519 437.494 425.765 438.249Z" fill="black"/>
<path d="M326.86 410.872C328.367 408.606 324.348 406.152 322.15 405.208C322.15 408.229 312.73 410.243 308.02 410.872L313.672 407.096C293.891 414.019 255.459 428.242 259.981 429.753C265.632 431.641 324.976 413.704 326.86 410.872Z" fill="black"/>
<path d="M412.578 426.921H424.823C444.291 382.551 464.045 355.174 481 297.587C482.005 294.175 481.408 289.536 480.077 284.828C476.934 273.711 466.513 266.888 455.245 264.343L405.984 253.218L381.493 286.259C381.493 286.259 444.298 289.091 448.372 297.587C452.447 306.084 412.578 426.921 412.578 426.921Z" fill="#212E3F"/>
<path d="M312.73 404.264L324.976 403.32C273.168 269.266 281.646 278.707 411.636 290.979C424.088 292.155 411.636 258.882 411.636 258.882C208.173 184.869 260.923 324.964 312.73 404.264Z" fill="#212E3F"/>
<path d="M436.127 70.074V118.22L463.444 122.94L467.211 62.5217L436.127 70.074Z" fill="#EFC09E"/>
<path d="M463.444 23.8162C461.937 19.2848 444.605 18.152 436.127 18.152C427.649 18.152 422.939 30.4245 422.939 30.4245L428.591 52.1374C422.705 53.2434 418.464 51.0314 412.578 52.1374C406.692 53.2434 422.939 61.5778 422.939 61.5778C422.939 61.5778 417.611 72.2979 418.23 79.5145C418.698 84.9751 417.789 90.8877 422.939 92.731C436.127 97.4512 447.43 82.3466 457.792 73.8503C468.153 65.3539 464.951 28.3476 463.444 23.8162Z" fill="#FFCDA8"/>
<path d="M468.153 62.5218L462.502 63.4658V23.8162L431.417 21.9282C426.707 22.2428 420.114 19.2848 431.417 4.9354C442.721 -9.414 467.525 10.9143 478.515 22.8721L475.689 20.9841L468.153 62.5218Z" fill="#642111"/>
<path d="M467.212 63.4658C464.386 56.8575 467.212 51.1933 467.212 51.1933C470.979 42.6969 477.573 41.3753 479.457 45.5291C484.167 55.9135 475.689 63.4658 467.212 63.4658Z" fill="#FFCDA8"/>
<path d="M313.672 404.264L268.458 277.763L271.284 275.875L315.556 404.264H313.672Z" fill="#F39A4A"/>
<path d="M423.881 425.033L469.095 298.532L466.27 296.643L421.997 425.033H423.881Z" fill="#F39A4A"/>
<path d="M439.895 104.059L438.953 122.94C438.953 122.94 434.055 119.542 433.301 109.724C432.547 99.9057 435.499 97.7659 437.069 99.3393L439.895 104.059Z" fill="#5B7F80"/>
<path d="M443.663 121.052L444.605 104.059L466.27 89.8988L465.328 86.1227L469.095 88.0108L470.037 100.283L443.663 121.052Z" fill="#5C7F81"/>
<path d="M477.573 230.561L470.037 267.378L404.1 256.05L406.926 152.205C406.926 152.205 375.842 192.799 372.074 198.463C372.074 205.072 373.958 213.568 373.958 213.568C370.504 215.299 362.466 218.76 357.944 218.76C353.423 218.76 356.06 202.082 357.944 193.743C359.828 185.404 410.694 114.444 410.694 114.444L433.301 106.892L436.127 119.164H445.547L470.037 100.283L502.064 121.996L487.935 163.534L481.341 179.583L478.515 203.184L477.573 222.064V230.561Z" fill="#3E5354"/>
<path d="M441.779 120.108H438.953L423.881 210.736C423.881 210.736 426.707 212.435 426.707 211.68C426.707 210.925 436.755 150.632 441.779 120.108Z" fill="#212E3F"/>
<path d="M486.993 121.052H502.064L486.993 124.828L480.399 135.213L486.993 121.052Z" fill="#212E3F"/>
<path d="M422.939 210.736L478.515 203.184L481.341 179.583L487.935 163.534L501.122 121.052" stroke="#212E3F" stroke-width="0.5"/>
<path d="M444.604 223.008L433.301 211.68H426.707L418.443 207.162C417.216 206.491 415.686 206.754 414.782 207.822C409.675 213.857 402.582 223.533 405.984 224.896C409.752 226.407 414.462 218.603 416.346 214.512H418.23L408.81 227.729H421.055L422.939 229.617C424.195 229.617 428.026 229.239 433.301 227.729C437.069 233.015 442.407 229.931 444.604 227.729L440.837 224.896L444.604 223.008Z" fill="#FFCDA8"/>
<path d="M513.368 206.96C522.976 195.442 508.344 147.485 502.064 121.996L487.935 159.758C487.935 159.758 495.47 197.519 491.702 200.351C487.935 203.183 422.94 211.68 426.707 211.68C430.475 211.68 441.779 223.952 441.779 223.952C463.444 221.75 503.76 218.477 513.368 206.96Z" fill="#3E5354"/>
<path d="M373.5 212.5L359.88 218.358L358.657 223.623L350.611 230.469C355.803 235.909 366.77 246.132 369.101 243.504C371.433 240.877 363.87 235.148 359.797 232.612L360.146 231.107L372.687 241.962L374.958 232.184L377.349 231.156C377.582 230.153 377.884 226.999 377.229 222.406C383.078 220.878 381.645 216.553 379.85 214.051C379.564 213.651 379.018 213.568 378.599 213.823L375.565 215.674L373.5 212.5Z" fill="#FFCDA8"/>
<path d="M407.868 145.597L410.694 114.444C410.694 114.444 412.083 124.382 410.694 130.493C409.631 135.165 407.868 145.597 407.868 145.597Z" fill="#212E3F"/>
<path d="M475.689 47.4603C473.482 48.5663 470.979 50.2925 470.979 50.2925C470.979 50.2925 479.457 50.2925 471.921 60.6769C479.457 57.8448 477.334 46.636 475.689 47.4603Z" fill="#666666" fill-opacity="0.25"/>
<path d="M448.372 165.422V154.093L470.037 161.646V171.086L448.372 165.422Z" fill="#212E3F"/>
<path d="M414.462 54.1373L411.636 45.641V34.3125H463.444L478.515 45.0088V52.2492H468.154L457.792 56.0254L434.243 55.0814L432.359 52.2492H426.707L425.452 54.1373H414.462Z" fill="black"/>
<path d="M422.939 73.8504C432.045 76.3678 433.678 86.3117 448.372 71.0182C463.067 55.7248 430.789 69.4449 422.939 73.8504Z" fill="white"/>
<path d="M440.837 56.0254L411.636 36.2006H440.837L459.676 46.585L454.024 51.3052L438.011 41.8648L435.185 42.8088L456.85 56.0254H440.837Z" fill="#5B7F80"/>
<path d="M412.578 41.7528V39.8648L461.56 37.9767L412.578 41.7528Z" fill="#5DC4DA"/>
<path d="M150.713 468.458L141.294 475.067V456.186H150.713V468.458Z" fill="#3E5354"/>
<path d="M222.302 427.865L213.825 435.5V416.536H222.302V427.865Z" fill="#3E5354"/>
<path d="M64.9951 452.41L56.5175 459.018V439.193H64.9951V452.41Z" fill="#3E5354"/>
<path d="M124.339 473.179V454.298H141.294V475.067L124.339 473.179Z" fill="#243233"/>
<path d="M213.825 435.417V419.369H194.044V433.529L213.825 435.417Z" fill="#243233"/>
<path d="M56.5175 459.018V440.137L41.4462 437.305V457.13L56.5175 459.018Z" fill="#243233"/>
<path d="M34.8525 438.249L18.8392 251.33L159.191 262.658L148.829 459.962L34.8525 438.249Z" fill="#243233"/>
<path d="M363.596 503.388L368.306 285.315H389.971L376.783 508.108L363.596 503.388Z" fill="#3E5354"/>
<path d="M463.444 464.682C474.747 397.026 497.166 260.392 496.412 255.106L512.426 251.33L476.631 459.962L463.444 464.682Z" fill="#3E5354"/>
<path d="M232.664 414.648L148.829 459.962L159.191 262.658L253.387 271.154L232.664 414.648Z" fill="#3E5354"/>
<path d="M400.332 290.035L2.82588 250.386L0 240.945L400.332 280.595L526.555 240.945V247.553L400.332 290.035Z" fill="#243233"/>
<path d="M157.307 206.96L0 241L399.332 280.651L526.5 241L157.307 206.96Z" fill="#F39A4A"/>
<path d="M314.054 223.009L239.258 237.106L361.393 253.218L423.881 237.106L314.054 223.009Z" fill="black" stroke="black"/>
<path d="M313.672 223.009L239.258 236.225L360.77 251.33L422.939 236.225L313.672 223.009Z" fill="#FAFAFA"/>
<path d="M335.105 234.337L293.891 241.386L361.19 249.441L395.623 241.386L335.105 234.337Z" fill="#C4C4C4"/>
<path d="M361.712 230.561L346.641 232.323L369.074 234.337L380.551 232.323L361.712 230.561Z" fill="#C4C4C4"/>
<path d="M354.5 170.5L231.5 160L239.5 236.5L361 252.5L354.5 170.5Z" fill="#E8E8E8"/>
</svg>
