<svg width="350" height="423" viewBox="0 0 350 423" fill="none" xmlns="http://www.w3.org/2000/svg">
<path d="M189.423 192.823C189.423 220.752 166.528 243.397 138.279 243.397C110.029 243.397 87.1337 220.752 87.1337 192.823C87.1337 164.895 110.029 142.25 138.279 142.25C166.528 142.25 189.423 164.895 189.423 192.823Z" fill="#F7E867" stroke="#F8E701" stroke-width="0.5"/>
<path d="M223.553 278.882C227.69 262.412 236.519 249.198 252.514 258.294C266.542 266.272 269.063 291.235 252.514 295.353C243.374 297.627 240.102 284.141 240.102 274.765" stroke="#F4E0E9" stroke-width="4"/>
<path d="M0 302.647C0 295.792 5.55703 290.235 12.412 290.235C19.2669 290.235 24.824 295.792 24.824 302.647V327.235C24.824 334.09 19.2669 339.647 12.412 339.647C5.55703 339.647 0 334.09 0 327.235V302.647Z" fill="#C7A1B0"/>
<path d="M47.2574 261.059L47.2568 211.083C47.2568 210.593 47.6371 210.171 48.1205 210.094C98.5803 202.051 92.9667 227.273 98.6443 244.119C98.6443 244.119 151.5 228.54 196 248.5C255.5 275.189 232.842 348.589 201.434 379.647V422H167.171V379.647H115.776V422H81.5127C81.5127 422 82.7464 380.823 55.8208 371.177C-12.4119 339.647 13.0005 278 47.2574 261.059Z" fill="#F4E0E9"/>
<path d="M143.087 355.415C156.424 355.415 167.236 366.227 167.236 379.564H115.342C115.342 366.227 126.153 355.415 139.491 355.415H143.087Z" fill="#EBC7D5"/>
<path d="M100.731 407.379C108.888 407.379 115.5 413.992 115.5 422.148H81.1597C81.1597 413.992 87.7719 407.379 95.9284 407.379H100.731Z" fill="#EBC7D5"/>
<path d="M186.572 407C194.728 407 201.34 413.612 201.34 421.769H167C167 413.612 173.612 407 181.769 407H186.572Z" fill="#EBC7D5"/>
<ellipse cx="55.8235" cy="286.469" rx="8.56581" ry="8.47046" fill="#C7A1B0"/>
<path d="M172.405 56.2207L240.905 99.7209L233.874 108.03C228.061 114.901 218.893 117.941 210.126 115.906L158.157 103.841C149.758 101.892 146.095 91.9861 151.204 85.0414L172.405 56.2207Z" fill="#E3B696"/>
<path d="M175.507 164.714C168.5 173 149.291 178 145 161C140.709 144 181.969 107.606 187.842 91.1324C193.714 74.6586 200.032 72.3733 175.507 77.2603C150.983 82.1473 135.035 121.001 126 143.5C112.448 147.919 103.324 152.956 97 163C90.6757 173.044 114.402 60.9194 161.382 46.4556C208.362 31.9918 226.239 33.2765 242.501 38.4995C258.287 43.5694 297.482 88.3879 299.767 91.0123C300.028 90.9885 299.871 91.1324 299.871 91.1324C299.871 91.1324 299.836 91.0916 299.767 91.0123C299.067 91.0762 295.367 92.3465 277.599 100.833C253.205 112.484 231.66 109.211 219.915 117.648C208.17 126.085 175.507 164.714 175.507 164.714Z" fill="#FFCDA8"/>
<path d="M172 160.897C165.571 153.249 161.286 150.275 152.286 149C152.286 149 141.779 159.201 153.668 167.27C161.028 171.881 169.429 166.42 172 160.897Z" fill="#FFE5D2"/>
<rect width="58.3699" height="86.3527" transform="matrix(0.9943 -0.106619 0.134467 0.990918 233.947 28.3938)" fill="#5C7F81"/>
<path d="M275.561 33.3703C273.556 18.594 283.95 5.32661 298.776 3.73675L333.624 -1.26449e-05L350 120.675L315.152 124.412C300.325 126.001 286.68 115.312 284.675 100.536L275.561 33.3703Z" fill="#6B9293"/>
</svg>
